<svg t="1609782790708"  icon-class='borrow' class="icon" viewBox="0 0 1024 1024" version="1.1" xmlns="http://www.w3.org/2000/svg" p-id="7383" width="200" height="200"><path d="M865.7 87.8H158.2C106 87.8 64 129.9 64 181.9v660.5c0 52 42.1 94.1 94.2 94.1h707.4c52.2 0 94.2-42.1 94.2-94.1V181.8c0-52-42.1-94-94.1-94z m47 754.5c0 26-20.9 46.9-47 46.9H158.2c-26 0-47-21-47-46.9V181.8c0-26 20.9-46.9 47-46.9h707.4c26 0 47 21 47 46.9v660.5z m0 0" p-id="7384" fill="#ffffff"></path><path d="M719.9 414.4h-39.2v-54.9h28c25.8 0 39.8 0.6 53.2 2.2V304c-15.7 2.2-31.4 2.8-53.8 2.8h-27.4v-14c0-19.6 1.1-33 2.8-45.9h-63.3c1.7 12.3 2.8 25.8 2.8 45.4v14.6h-80.6v-13.4c0-21.3 0.6-34.7 2.8-46.5h-63.8c2.2 13.4 3.4 26.3 3.4 45.9v14h-18.5c-23 0-38.6-0.6-52.1-2.8v57.7c12.9-1.7 26.9-2.2 51.5-2.2h19v54.9h-31.4c-29.1 0-44.2-0.6-56.6-2.8V471c16.2-2.2 31.9-2.8 57.7-2.8h264.3c26.9 0 43.7 1.1 57.7 3.4v-59.9c-12.8 1.6-29 2.7-56.5 2.7z m-96.8 0h-80.6v-54.9h80.6v54.9z" p-id="7385" fill="#ffffff"></path><path d="M373.3 383.6v315.8c0 25.2 0.6 43.7 2.8 64.9h-65c2.2-20.7 3.4-38.6 3.4-65.5V532.5c0-13.4 0-13.4 1.7-63.3-24.1 39.2-27.4 44.2-42.6 62.7-7.8-27.4-13.4-43.1-25.8-66.6 37-39.8 67.2-90.7 89.6-152.3 11.8-31.4 16.2-48.2 19.6-73.9l64.4 15.1c-1.1 3.4-6.7 20.2-16.2 49.3-8.9 26.9-17.9 49.3-31.9 80.1zM732.8 764.3c-1.7-20.2-2.8-39.2-2.8-66.6V549.9c0-23 0.6-36.4 2.2-48.7-12.3 1.7-25.2 2.2-52.1 2.2h-196c-24.6 0-37-0.6-50.9-2.2 1.7 13.4 2.2 25.8 2.2 46.5V701c0 24.6-1.1 44.2-3.4 63.3h61.6v-25.8h176.9v25.8h62.3zM493.7 553.8h176.9v42H493.7v-42z m0 133.8v-43.1h176.9v43.1H493.7z" p-id="7386" fill="#ffffff"></path></svg>