<svg t="1609782407170" icon-class="reader" class="icon" viewBox="0 0 1024 1024" version="1.1" xmlns="http://www.w3.org/2000/svg" p-id="3653" width="200" height="200"><path d="M604.7 520.6c-107.7 0-195.4-87.7-195.4-195.4S497 129.8 604.7 129.8s195.4 87.7 195.4 195.4-87.7 195.4-195.4 195.4z m0-320.8c-69.1 0-125.4 56.3-125.4 125.4s56.3 125.4 125.4 125.4 125.4-56.3 125.4-125.4c0-69.1-56.3-125.4-125.4-125.4zM860.2 894.3h-511c-20.3 0-39.3-9.8-51.9-26.8-14.4-19.4-18.7-45.3-11.5-69.2 11.1-36.8 35.1-89.6 86.3-132.4 57.7-48.3 136-72.8 232.7-72.8 93.9 0 170.9 24.2 228.9 72 51.3 42.2 76.8 94.6 89.2 131 8.2 23.9 4.5 50.2-9.9 70.3-12.8 17.7-32 27.9-52.8 27.9z m-507.4-70h503.8c0.4-1.3 0.7-3.4-0.1-5.7-24.1-71-87.4-155.6-251.8-155.6-169.4 0-230.5 84.6-252 155.5-0.6 2.4-0.3 4.5 0.1 5.8zM219.5 894.3h-56.2c-21.6 0-41.8-10.5-54.2-28.2s-15.4-40.4-8.1-60.8c10.3-28.8 26.2-55 47.2-77.9 27.7-30.2 63.7-53.5 106.9-69.3 18.1-6.7 38.3 2.7 44.9 20.8 6.7 18.1-2.7 38.3-20.8 44.9-67.8 24.9-97.5 67.4-110.5 100.4h50.9c19.3 0 35 15.7 35 35s-15.8 35.1-35.1 35.1z" fill="#ffffff" p-id="3654"></path><path d="M378.7 578.3c-83.2 0-150.8-67.6-150.8-150.8 0-63.6 40.4-120.5 100.5-141.6 18.2-6.4 38.2 3.2 44.6 21.4 6.4 18.2-3.2 38.2-21.4 44.6-32.1 11.3-53.7 41.7-53.7 75.6 0 44.6 36.2 80.8 80.8 80.8 7.7 0 15.1-1.2 22.8-3.6 18.4-5.8 38.1 4.5 43.9 22.9 5.8 18.4-4.5 38.1-22.9 43.9-14.4 4.5-29.1 6.8-43.8 6.8z" fill="#ffffff" p-id="3655"></path></svg>